<svg xmlns="http://www.w3.org/2000/svg" xmlns:xlink="http://www.w3.org/1999/xlink" viewBox="0 0 40.58 32.97"><defs><style>.cls-1{fill:none;}.cls-2{isolation:isolate;}.cls-3{clip-path:url(#clip-path);}.cls-4{fill:#313939;}.cls-5{fill:#323a3a;}.cls-6{fill:#3b4344;}.cls-7{fill:#303838;}.cls-8{clip-path:url(#clip-path-2);}.cls-9{fill:#384040;}.cls-10{fill:#394141;}.cls-11{fill:#3a4242;}.cls-12{fill:#3b4343;}.cls-13{fill:#414a4a;}.cls-14{clip-path:url(#clip-path-3);}.cls-15{fill:#343c3c;}.cls-16{fill:#353d3d;}.cls-17{fill:#363e3e;}.cls-18{fill:#373f3f;}.cls-19{fill:#c8c8c8;}.cls-20{fill:#00a0e9;}</style><clipPath id="clip-path" transform="translate(0)"><path class="cls-1" d="M38.08,27.36,40.58,33A30.41,30.41,0,0,0,0,33l2.5-5.61c1.87-1.68,9.64-4.65,17.79-4.65S36.21,25.68,38.08,27.36Z"/></clipPath><clipPath id="clip-path-2" transform="translate(0)"><path class="cls-1" d="M20.29,2.5V0A55.53,55.53,0,0,1,40.58,3.81l-2.5,1.7C33.58,3.76,26.65,2.73,20.29,2.5Z"/></clipPath><clipPath id="clip-path-3" transform="translate(0)"><path class="cls-1" d="M2.5,5.51,0,3.81A55.53,55.53,0,0,1,20.29,0V2.5C13.93,2.73,7,3.76,2.5,5.51Z"/></clipPath></defs><title>button_cmd_up_normal</title><g id="レイヤー_2" data-name="レイヤー 2"><g id="レイヤー_3" data-name="レイヤー 3"><g class="cls-2"><g class="cls-2"><g class="cls-3"><g class="cls-2"><path class="cls-4" d="M38.08,27.36,40.58,33A30.43,30.43,0,0,0,2.72,30.79L3.78,26.5a38,38,0,0,1,16.51-3.79c8.15,0,15.92,3,17.79,4.65" transform="translate(0)"/><path class="cls-5" d="M3.78,26.5,2.72,30.79A29.5,29.5,0,0,0,0,33l2.5-5.61a7,7,0,0,1,1.28-.86" transform="translate(0)"/></g></g></g><polygon class="cls-6" points="38.08 5.51 40.58 3.81 40.58 32.97 38.08 27.36 38.08 5.51"/><polygon class="cls-7" points="2.5 27.36 0 32.97 0 3.81 2.5 5.51 2.5 27.36"/><g class="cls-2"><g class="cls-8"><g class="cls-2"><path class="cls-9" d="M20.29,2.5V0c.82,0,1.64,0,2.45.05l-.21,2.56c-.75,0-1.5-.08-2.24-.11" transform="translate(0)"/><path class="cls-10" d="M22.53,2.61,22.74.05A55.92,55.92,0,0,1,29,.67l-.66,2.52c-1.89-.26-3.85-.46-5.78-.58" transform="translate(0)"/><path class="cls-11" d="M28.31,3.19,29,.67A56.5,56.5,0,0,1,36.86,2.5L35.25,4.58a55.26,55.26,0,0,0-6.94-1.39" transform="translate(0)"/><path class="cls-12" d="M35.25,4.58,36.86,2.5c1.26.39,2.5.83,3.72,1.31l-2.5,1.7c-.86-.33-1.81-.64-2.83-.93" transform="translate(0)"/></g></g></g><path class="cls-13" d="M20.29,2.5c6.36.23,13.29,1.26,17.79,3V27.36c-1.87-1.68-9.64-4.65-17.79-4.65s-15.92,3-17.79,4.65V5.51C7,3.76,13.93,2.73,20.29,2.5Z" transform="translate(0)"/><g class="cls-2"><g class="cls-14"><g class="cls-2"><path class="cls-15" d="M2.5,5.51,0,3.81c.68-.27,1.37-.52,2.07-.76L4,5q-.81.27-1.53.54" transform="translate(0)"/><path class="cls-16" d="M4,5l-2-1.92c1.55-.54,3.14-1,4.74-1.41L7.94,4c-1.4.3-2.72.64-3.91,1" transform="translate(0)"/><path class="cls-17" d="M7.94,4,6.81,1.64c1.63-.4,3.29-.74,5-1l.65,2.52c-1.54.22-3.05.47-4.48.78" transform="translate(0)"/><path class="cls-18" d="M12.42,3.17,11.77.65a55.87,55.87,0,0,1,7-.63l.14,2.54c-2.15.12-4.35.32-6.47.61" transform="translate(0)"/><path class="cls-9" d="M18.89,2.56,18.75,0l1.54,0V2.5l-1.4.06" transform="translate(0)"/></g></g></g></g><polygon class="cls-19" points="10.02 15.52 13.12 18.62 21.06 10.67 29.01 18.62 32.11 15.52 21.06 4.47 10.02 15.52"/><path class="cls-20" d="M37.08,26.26v-2a35.36,35.36,0,0,0-33.58,0v2a33.7,33.7,0,0,1,33.58,0Z" transform="translate(0)"/></g></g></svg>