<svg xmlns="http://www.w3.org/2000/svg" xmlns:xlink="http://www.w3.org/1999/xlink" viewBox="0 0 40.59 32.97"><defs><style>.cls-1{fill:none;}.cls-2{isolation:isolate;}.cls-3{clip-path:url(#clip-path);}.cls-4{fill:#3a4141;}.cls-5{fill:#3c4343;}.cls-6{fill:#393f40;}.cls-7{fill:#4b5252;}.cls-8{fill:#545b5b;}.cls-9{clip-path:url(#clip-path-2);}.cls-10{fill:#454c4c;}.cls-11{fill:#474e4e;}.cls-12{fill:#484f4f;}.cls-13{fill:#4a5151;}.cls-14{clip-path:url(#clip-path-3);}.cls-15{fill:#3f4646;}.cls-16{fill:#414848;}.cls-17{fill:#424949;}.cls-18{fill:#444b4b;}.cls-19{fill:#c8c8c8;}</style><clipPath id="clip-path" transform="translate(0)"><path class="cls-1" d="M38.09,27.36,40.59,33A30.42,30.42,0,0,0,0,33l2.5-5.6c1.88-1.69,9.65-4.66,17.8-4.66S36.22,25.68,38.09,27.36Z"/></clipPath><clipPath id="clip-path-2" transform="translate(0)"><path class="cls-1" d="M20.3,2.5V0A55.57,55.57,0,0,1,40.59,3.81l-2.5,1.7C33.59,3.76,26.65,2.73,20.3,2.5Z"/></clipPath><clipPath id="clip-path-3" transform="translate(0)"><path class="cls-1" d="M2.5,5.52,0,3.81A55.62,55.62,0,0,1,20.3,0V2.5C13.94,2.72,7,3.76,2.5,5.52Z"/></clipPath></defs><title>button_up_pressed</title><g id="レイヤー_2" data-name="レイヤー 2"><g id="レイヤー_3" data-name="レイヤー 3"><g class="cls-2"><g class="cls-2"><g class="cls-3"><g class="cls-2"><path class="cls-4" d="M38.09,27.36,40.59,33A30.44,30.44,0,0,0,2.71,30.8l1.07-4.29a37.87,37.87,0,0,1,16.52-3.8c8.15,0,15.92,3,17.79,4.65" transform="translate(0)"/><path class="cls-5" d="M3.78,26.51,2.71,30.8A31,31,0,0,0,0,33l2.5-5.6a6.24,6.24,0,0,1,1.28-.86" transform="translate(0)"/></g></g></g><polygon class="cls-6" points="2.5 27.37 0 32.97 0 3.81 2.5 5.51 2.5 27.37"/><polygon class="cls-7" points="38.09 5.51 40.59 3.81 40.59 32.97 38.09 27.36 38.09 5.51"/><path class="cls-8" d="M20.3,2.5c6.35.23,13.29,1.26,17.79,3V27.36c-1.87-1.68-9.64-4.65-17.79-4.65s-15.92,3-17.8,4.66V5.52C7,3.76,13.94,2.72,20.3,2.5Z" transform="translate(0)"/><g class="cls-2"><g class="cls-9"><g class="cls-2"><path class="cls-10" d="M20.3,2.5V0c.82,0,1.63,0,2.45.05l-.22,2.56c-.75,0-1.5-.08-2.23-.11" transform="translate(0)"/><path class="cls-11" d="M22.53,2.61,22.75.05A55.92,55.92,0,0,1,29,.67l-.66,2.52c-1.9-.26-3.85-.46-5.79-.58" transform="translate(0)"/><path class="cls-12" d="M28.32,3.19,29,.67a55.59,55.59,0,0,1,7.9,1.84L35.26,4.59a55.2,55.2,0,0,0-6.94-1.4" transform="translate(0)"/><path class="cls-13" d="M35.26,4.59l1.62-2.08c1.25.39,2.49.82,3.71,1.3l-2.5,1.7c-.86-.33-1.81-.64-2.83-.92" transform="translate(0)"/></g></g></g><g class="cls-2"><g class="cls-14"><g class="cls-2"><path class="cls-15" d="M2.5,5.52,0,3.81c.68-.27,1.36-.52,2.05-.76L4,5c-.53.17-1,.35-1.52.54" transform="translate(0)"/><path class="cls-16" d="M4,5l-2-1.93q2.34-.81,4.76-1.41L8,4A39.2,39.2,0,0,0,4,5" transform="translate(0)"/><path class="cls-17" d="M8,4,6.81,1.64c1.64-.4,3.29-.74,5-1l.65,2.52C10.88,3.39,9.37,3.64,8,4" transform="translate(0)"/><path class="cls-18" d="M12.43,3.17,11.78.65a55.87,55.87,0,0,1,7-.63l.14,2.54c-2.15.12-4.35.32-6.47.61" transform="translate(0)"/><path class="cls-10" d="M18.9,2.56,18.76,0,20.3,0V2.5l-1.4.06" transform="translate(0)"/></g></g></g></g><polygon class="cls-19" points="10.03 15.52 13.13 18.62 21.07 10.67 29.02 18.62 32.12 15.52 21.07 4.47 10.03 15.52"/></g></g></svg>