<svg xmlns="http://www.w3.org/2000/svg" xmlns:xlink="http://www.w3.org/1999/xlink" viewBox="0 0 40.59 32.97"><defs><style>.cls-1{fill:none;}.cls-2{isolation:isolate;}.cls-3{clip-path:url(#clip-path);}.cls-4{fill:#3a4141;}.cls-5{fill:#3c4343;}.cls-6{fill:#393f40;}.cls-7{fill:#4b5252;}.cls-8{fill:#545b5b;}.cls-9{clip-path:url(#clip-path-2);}.cls-10{fill:#454c4c;}.cls-11{fill:#474e4e;}.cls-12{fill:#484f4f;}.cls-13{fill:#4a5151;}.cls-14{clip-path:url(#clip-path-3);}.cls-15{fill:#3f4646;}.cls-16{fill:#414848;}.cls-17{fill:#424949;}.cls-18{fill:#444b4b;}.cls-19{fill:#c8c8c8;}</style><clipPath id="clip-path" transform="translate(0)"><path class="cls-1" d="M38.09,27.36,40.59,33A30.42,30.42,0,0,0,0,33l2.5-5.6c1.88-1.69,9.65-4.66,17.8-4.66S36.22,25.68,38.09,27.36Z"/></clipPath><clipPath id="clip-path-2" transform="translate(0)"><path class="cls-1" d="M20.3,2.5V0A55.33,55.33,0,0,1,40.59,3.82l-2.5,1.7C33.59,3.76,26.66,2.73,20.3,2.5Z"/></clipPath><clipPath id="clip-path-3" transform="translate(0)"><path class="cls-1" d="M2.5,5.52,0,3.82A55.42,55.42,0,0,1,20.3,0V2.5C13.94,2.73,7,3.76,2.5,5.52Z"/></clipPath></defs><title>button_counterclockwise_pressed</title><g id="レイヤー_2" data-name="レイヤー 2"><g id="レイヤー_3" data-name="レイヤー 3"><g class="cls-2"><g class="cls-2"><g class="cls-3"><g class="cls-2"><path class="cls-4" d="M38.09,27.36,40.59,33A30.44,30.44,0,0,0,2.71,30.8l1.07-4.29a37.87,37.87,0,0,1,16.52-3.8c8.15,0,15.92,3,17.79,4.65" transform="translate(0)"/><path class="cls-5" d="M3.78,26.51,2.71,30.8A31,31,0,0,0,0,33l2.5-5.6a6.24,6.24,0,0,1,1.28-.86" transform="translate(0)"/></g></g></g><polygon class="cls-6" points="2.5 27.37 0 32.97 0 3.82 2.5 5.52 2.5 27.37"/><polygon class="cls-7" points="38.09 5.52 40.59 3.82 40.59 32.97 38.09 27.36 38.09 5.52"/><path class="cls-8" d="M20.3,2.5c6.36.23,13.29,1.26,17.79,3V27.36c-1.87-1.68-9.64-4.65-17.79-4.65s-15.92,3-17.8,4.66V5.52C7,3.76,13.94,2.73,20.3,2.5Z" transform="translate(0)"/><g class="cls-2"><g class="cls-9"><g class="cls-2"><path class="cls-10" d="M20.3,2.5V0c.82,0,1.63,0,2.45.05l-.22,2.56c-.75,0-1.5-.08-2.23-.11" transform="translate(0)"/><path class="cls-11" d="M22.53,2.61,22.75.05A55.57,55.57,0,0,1,29,.67L28.3,3.19c-1.89-.26-3.84-.46-5.77-.58" transform="translate(0)"/><path class="cls-12" d="M28.3,3.19,29,.67A54.85,54.85,0,0,1,36.83,2.5l-1.6,2.08A55.45,55.45,0,0,0,28.3,3.19" transform="translate(0)"/><path class="cls-13" d="M35.23,4.58l1.6-2.08c1.27.39,2.53.83,3.76,1.32l-2.5,1.7c-.87-.34-1.83-.65-2.86-.94" transform="translate(0)"/></g></g></g><g class="cls-2"><g class="cls-14"><g class="cls-2"><path class="cls-15" d="M2.5,5.52,0,3.82C.69,3.54,1.39,3.29,2.1,3L4.05,5c-.54.18-1.06.36-1.55.55" transform="translate(0)"/><path class="cls-16" d="M4.05,5,2.1,3q2.32-.8,4.73-1.4L8,4c-1.4.3-2.72.64-3.92,1" transform="translate(0)"/><path class="cls-17" d="M8,4,6.83,1.64c1.63-.4,3.29-.74,5-1l.65,2.52c-1.55.21-3,.47-4.47.78" transform="translate(0)"/><path class="cls-18" d="M12.44,3.17,11.79.65a53.73,53.73,0,0,1,7-.63l.14,2.54c-2.15.12-4.34.32-6.46.61" transform="translate(0)"/><path class="cls-10" d="M18.9,2.56,18.76,0,20.3,0V2.5l-1.4.06" transform="translate(0)"/></g></g></g></g><path class="cls-19" d="M21.73,8.61H19.6V4.79l-8.67,7,8.67,7V14.72h.8c3.52,0,8.41-.09,8.77,3.72C30.94,14.28,29.43,8.61,21.73,8.61Z" transform="translate(0)"/></g></g></svg>