<svg xmlns="http://www.w3.org/2000/svg" viewBox="0 0 65.09 67.93"><defs><style>.cls-1{fill:#8c8c8c;}.cls-2{fill:#fff;}.cls-3{fill:#5f5f5f;}</style></defs><title>img_intball_top</title><g id="レイヤー_2" data-name="レイヤー 2"><g id="レイヤー_6" data-name="レイヤー 6"><path class="cls-1" d="M32.55,67.93a34,34,0,0,1-31.1-20.3A17,17,0,0,1,0,40.75V27.18A17,17,0,0,1,1.45,20.3a34,34,0,0,1,62.2,0,17,17,0,0,1,1.44,6.88V40.75a17,17,0,0,1-1.44,6.88A34,34,0,0,1,32.55,67.93Z"/><path class="cls-2" d="M62.26,27.18a14.34,14.34,0,0,0-1.2-5.74,31.14,31.14,0,0,0-57,0,14.18,14.18,0,0,0-1.21,5.74V40.75A14.21,14.21,0,0,0,4,46.49a31.15,31.15,0,0,0,57,0,14.37,14.37,0,0,0,1.2-5.74Z"/><path class="cls-1" d="M1.65,43.28s.08-2.15,3.56,1.91a35,35,0,0,0,10,8A38.05,38.05,0,0,0,22.94,56c.87.21,2.24,1,2.49-.75A17.65,17.65,0,0,0,25.6,52,1.74,1.74,0,0,1,27.09,50a50.47,50.47,0,0,1,5.13-.49,35.61,35.61,0,0,1,5.72.58c.66.24,1.62.16,1.58,2.65a22.48,22.48,0,0,0,.13,2.94c.18.67,1,.65,1.52.57a34.33,34.33,0,0,0,10-3.81,52.6,52.6,0,0,0,7.87-6.13c1.49-1.58,3.4-4.53,4-4.2S62,46.85,62,46.85,49.62,67.34,31.56,65.68,2.89,49.75,1.65,43.28Z"/><path class="cls-3" d="M16.47,56.91a24.49,24.49,0,0,0-7.79-3,31.19,31.19,0,0,0,15.51,10A21.69,21.69,0,0,0,16.47,56.91Z"/><path class="cls-2" d="M17,56.05h0A25,25,0,0,0,8.89,53L7.8,52.78A31.14,31.14,0,0,0,25.6,64.31l-.52-.88A22.69,22.69,0,0,0,17,56.05Z"/><path class="cls-3" d="M16.5,56.91a24.53,24.53,0,0,0-7.78-3,31.12,31.12,0,0,0,15.5,10A21.6,21.6,0,0,0,16.5,56.91Z"/><path class="cls-2" d="M48.1,56.05h0A24.89,24.89,0,0,1,56.21,53l1.09-.19A31.2,31.2,0,0,1,39.49,64.31l.52-.88A22.73,22.73,0,0,1,48.1,56.05Z"/><path class="cls-3" d="M48.6,56.91a24.35,24.35,0,0,1,7.78-3,31.19,31.19,0,0,1-15.51,10A21.64,21.64,0,0,1,48.6,56.91Z"/><path class="cls-1" d="M19.45,2.9A34,34,0,0,0,7.81,11.35V38.73s-.13,2.09.66,2.85a21.52,21.52,0,0,0,4.73,2.75c1,.43,5.59,2.28,6,2.13s.29-.5.29-.78Z"/><path class="cls-1" d="M45.65,2.9a34.07,34.07,0,0,1,11.63,8.45V38.73s.13,2.09-.65,2.85a21.75,21.75,0,0,1-4.73,2.75c-.95.43-5.6,2.28-6,2.13s-.29-.5-.29-.78Z"/></g></g></svg>