<svg xmlns="http://www.w3.org/2000/svg" viewBox="0 0 65.09 67.93"><defs><style>.cls-1{fill:#8c8c8c;}.cls-2{fill:#fff;}.cls-3{fill:#aeaeae;}.cls-4{fill:#5f5f5f;}</style></defs><title>img_intball_back</title><g id="レイヤー_2" data-name="レイヤー 2"><g id="レイヤー_6" data-name="レイヤー 6"><path class="cls-1" d="M32.55,67.93a34,34,0,0,1-31.1-20.3A17,17,0,0,1,0,40.75V27.18A17,17,0,0,1,1.45,20.3a34,34,0,0,1,62.2,0,17,17,0,0,1,1.44,6.88V40.75a17,17,0,0,1-1.44,6.88A34,34,0,0,1,32.55,67.93Z"/><path class="cls-2" d="M62.26,27.18a14.34,14.34,0,0,0-1.2-5.74,31.14,31.14,0,0,0-57,0,14.18,14.18,0,0,0-1.21,5.74V40.75A14.21,14.21,0,0,0,4,46.49a31.15,31.15,0,0,0,57,0,14.37,14.37,0,0,0,1.2-5.74Z"/><path class="cls-1" d="M19.45,2.9A37.14,37.14,0,0,0,7.81,14.66v38.1s-.13,2.9.66,4a21.73,21.73,0,0,0,4.73,3.83c1,.59,5.59,3.16,6,3s.29-.71.29-1.1Z"/><path class="cls-1" d="M45.65,2.9A37.22,37.22,0,0,1,57.28,14.66v38.1s.13,2.9-.65,4a22,22,0,0,1-4.73,3.83c-.95.59-5.6,3.16-6,3s-.29-.71-.29-1.1Z"/><circle class="cls-3" cx="32.55" cy="33.96" r="10.38"/><path class="cls-1" d="M40.17,10.46l1.09-1.82v1.82ZM32,11l.14-1.18,3.37-.14A18.25,18.25,0,0,0,32,11M30.56,14a6.24,6.24,0,0,0-.67-.82l.85-.54c-.11.79-.18,1.36-.18,1.36m-2.23-2,1.56-2,1.2-.05c-.07.55-.15,1.16-.22,1.74a17.75,17.75,0,0,0-1.54,1,8.29,8.29,0,0,0-1-.69m2.8-2.37-1,.06,1.2-1.54s-.09.63-.2,1.48M42.85,6.92H41.08l-3.62,5.65-.72-2.75,0-.05a22.36,22.36,0,0,1,2.31-.64l.15,0h0l-.36,0-1.66.09,1.39-1.84s.31-.45.66-.45H37.31L36.12,8.68h0l-.18-1.06s-.17-.7.32-.7H34.19l.58,2.43-2.61.15.5-4.15L29.71,9.64l-1.39.07-.11.28,1.29-.06-1.32,1.92c-.29-.16-.61-.32-.95-.47A5.94,5.94,0,0,0,28,9.85c.2-.6.56-1.67.73-2.34s.38-.58.43-.58H27.29S27,8.05,26.47,9.8A6.62,6.62,0,0,1,26,11a13.41,13.41,0,0,0-3.7-.48l0,0a17.56,17.56,0,0,1,3.57.72,2.57,2.57,0,0,1-2.63,1.39l-.08.16A3.6,3.6,0,0,0,27,11.71a6.77,6.77,0,0,1,.65.36l.28.18-.65.93h0l0,0,0,0h0l.67-.86a9.17,9.17,0,0,1,.82.67,18.6,18.6,0,0,0-4.3,4.8h.06a22.75,22.75,0,0,1,4.76-4.3,13.61,13.61,0,0,1,2,2.7l.51-4.25.27-.14c.65-.36,1.31-.68,2-1l-1.5,1.89h1.55L35.52,11h0l.33,1.73h3l.75-1.22h1.67l0,1.22h1.37l-.19-5.3s0-.49.39-.49"/><circle class="cls-4" cx="32.55" cy="33.96" r="3.45"/></g></g></svg>