<svg xmlns="http://www.w3.org/2000/svg" xmlns:xlink="http://www.w3.org/1999/xlink" viewBox="0 0 40.59 32.97"><defs><style>.cls-1{fill:none;}.cls-2{isolation:isolate;}.cls-3{clip-path:url(#clip-path);}.cls-4{fill:#3a4141;}.cls-5{fill:#4b5252;}.cls-6{fill:#545b5b;}.cls-7{fill:#393f40;}.cls-8{clip-path:url(#clip-path-2);}.cls-9{fill:#4d5454;}.cls-10{fill:#4e5555;}.cls-11{fill:#4a5151;}.cls-12{fill:#484f4f;}.cls-13{fill:#474e4e;}.cls-14{fill:#454c4c;}.cls-15{fill:#444b4b;}.cls-16{fill:#424949;}.cls-17{fill:#414848;}.cls-18{fill:#3f4646;}.cls-19{fill:#3e4445;}.cls-20{fill:#3c4343;}.cls-21{fill:#c8c8c8;}</style><clipPath id="clip-path" transform="translate(0)"><path class="cls-1" d="M38.09,27.45l2.5,1.7A55.54,55.54,0,0,1,20.3,33,55.63,55.63,0,0,1,0,29.15l2.5-1.7c4.51,1.76,11.44,2.79,17.8,3C26.66,30.24,33.59,29.21,38.09,27.45Z"/></clipPath><clipPath id="clip-path-2" transform="translate(0)"><path class="cls-1" d="M2.5,5.6,0,0A30.29,30.29,0,0,0,20.3,7.76,30.25,30.25,0,0,0,40.59,0l-2.5,5.61c-1.87,1.68-9.64,4.65-17.79,4.65S4.38,7.29,2.5,5.6Z"/></clipPath></defs><title>button_clockwise_pressed</title><g id="レイヤー_2" data-name="レイヤー 2"><g id="レイヤー_3" data-name="レイヤー 3"><g class="cls-2"><g class="cls-2"><g class="cls-3"><g class="cls-2"><path class="cls-4" d="M38.09,27.45l2.5,1.7A55.54,55.54,0,0,1,20.3,33,55.63,55.63,0,0,1,0,29.15l2.5-1.7c4.51,1.76,11.44,2.79,17.8,3,6.36-.23,13.29-1.26,17.79-3" transform="translate(0)"/></g></g></g><polygon class="cls-5" points="38.09 5.61 40.59 0 40.59 29.15 38.09 27.45 38.09 5.61"/><path class="cls-6" d="M38.09,5.61V27.45c-4.5,1.76-11.43,2.79-17.79,3-6.36-.23-13.29-1.26-17.8-3V5.6c1.88,1.69,9.65,4.66,17.8,4.66S36.22,7.29,38.09,5.61Z" transform="translate(0)"/><polygon class="cls-7" points="2.5 27.45 0 29.15 0 0 2.5 5.6 2.5 27.45"/><g class="cls-2"><g class="cls-8"><g class="cls-2"><path class="cls-9" d="M2.5,5.6,0,0,.53.46l2.16,5.3L2.5,5.6" transform="translate(0)"/><path class="cls-10" d="M2.69,5.76.53.46A29.37,29.37,0,0,0,4.35,3.25L4.84,7A11.39,11.39,0,0,1,2.69,5.76" transform="translate(0)"/><path class="cls-9" d="M4.84,7,4.35,3.25A27.79,27.79,0,0,0,7.13,4.77L7,7.89C6.2,7.6,5.48,7.3,4.84,7" transform="translate(0)"/><path class="cls-5" d="M7,7.89l.12-3.12c.81.39,1.65.75,2.5,1.07L9.24,8.62C8.45,8.39,7.7,8.14,7,7.89" transform="translate(0)"/><path class="cls-11" d="M9.24,8.62l.39-2.78c.86.32,1.73.6,2.62.84l-.46,2.6Q10.46,9,9.24,8.62" transform="translate(0)"/><path class="cls-12" d="M11.79,9.28l.46-2.6a28.48,28.48,0,0,0,2.88.64l-.38,2.51c-1-.15-2-.34-3-.55" transform="translate(0)"/><path class="cls-13" d="M14.75,9.83l.38-2.51c1,.17,2,.3,3.08.37L18,10.18c-1.12-.07-2.22-.19-3.29-.35" transform="translate(0)"/><path class="cls-14" d="M18,10.18l.17-2.49c.69,0,1.39.07,2.09.07l1,0,.08,2.5-1.06,0c-.76,0-1.51,0-2.26-.08" transform="translate(0)"/><path class="cls-15" d="M21.36,10.24l-.08-2.5a30.15,30.15,0,0,0,3.31-.28l.32,2.5c-1.15.15-2.34.24-3.55.28" transform="translate(0)"/><path class="cls-16" d="M24.91,10l-.32-2.5a30.07,30.07,0,0,0,4-.85l.46,2.61a41.51,41.51,0,0,1-4.15.74" transform="translate(0)"/><path class="cls-17" d="M29.06,9.22,28.6,6.61a30.15,30.15,0,0,0,4.67-1.74L33.42,8a39.66,39.66,0,0,1-4.36,1.27" transform="translate(0)"/><path class="cls-18" d="M33.42,8l-.15-3.08a31.19,31.19,0,0,0,3.57-2l-.68,3.93A24.25,24.25,0,0,1,33.42,8" transform="translate(0)"/><path class="cls-19" d="M36.16,6.81l.68-3.93c.76-.49,1.49-1,2.21-1.58l-1.6,4.79a13,13,0,0,1-1.29.72" transform="translate(0)"/><path class="cls-20" d="M37.45,6.09l1.6-4.79c.53-.42,1-.85,1.54-1.3l-2.5,5.61a5.59,5.59,0,0,1-.64.48" transform="translate(0)"/></g></g></g></g><path class="cls-21" d="M21.73,25.47H19.6V29.3l-8.67-7,8.67-7v4.14h.8c3.52,0,8.41.09,8.77-3.72C30.94,19.81,29.43,25.47,21.73,25.47Z" transform="translate(0)"/></g></g></svg>