<svg xmlns="http://www.w3.org/2000/svg" xmlns:xlink="http://www.w3.org/1999/xlink" viewBox="0 0 40.59 32.97"><defs><style>.cls-1{fill:none;}.cls-2{isolation:isolate;}.cls-3{clip-path:url(#clip-path);}.cls-4{fill:#313939;}.cls-5{fill:#323a3a;}.cls-6{fill:#3b4344;}.cls-7{fill:#303838;}.cls-8{clip-path:url(#clip-path-2);}.cls-9{fill:#384040;}.cls-10{fill:#394141;}.cls-11{fill:#3a4242;}.cls-12{fill:#3b4343;}.cls-13{fill:#414a4a;}.cls-14{clip-path:url(#clip-path-3);}.cls-15{fill:#343c3c;}.cls-16{fill:#353d3d;}.cls-17{fill:#363e3e;}.cls-18{fill:#373f3f;}.cls-19{fill:#00a0e9;}.cls-20{fill:#c8c8c8;}</style><clipPath id="clip-path" transform="translate(0)"><path class="cls-1" d="M38.09,27.37l2.5,5.6A30.42,30.42,0,0,0,0,33l2.5-5.61c1.87-1.68,9.64-4.65,17.8-4.65S36.21,25.68,38.09,27.37Z"/></clipPath><clipPath id="clip-path-2" transform="translate(0)"><path class="cls-1" d="M20.3,2.5V0A55.41,55.41,0,0,1,40.59,3.82l-2.5,1.7C33.58,3.76,26.65,2.73,20.3,2.5Z"/></clipPath><clipPath id="clip-path-3" transform="translate(0)"><path class="cls-1" d="M2.5,5.52,0,3.82A55.42,55.42,0,0,1,20.3,0V2.5C13.94,2.73,7,3.76,2.5,5.52Z"/></clipPath></defs><title>button_cmd_counterclockwise_normal</title><g id="レイヤー_2" data-name="レイヤー 2"><g id="レイヤー_3" data-name="レイヤー 3"><g class="cls-2"><g class="cls-2"><g class="cls-3"><g class="cls-2"><path class="cls-4" d="M38.09,27.37l2.5,5.6A30.44,30.44,0,0,0,2.72,30.79L3.78,26.5A38,38,0,0,1,20.3,22.71c8.14,0,15.91,3,17.79,4.66" transform="translate(0)"/><path class="cls-5" d="M3.78,26.5,2.72,30.79A31.27,31.27,0,0,0,0,33l2.5-5.61a7,7,0,0,1,1.28-.86" transform="translate(0)"/></g></g></g><polygon class="cls-6" points="38.09 5.52 40.59 3.82 40.59 32.97 38.09 27.37 38.09 5.52"/><polygon class="cls-7" points="2.5 27.36 0 32.97 0 3.82 2.5 5.52 2.5 27.36"/><g class="cls-2"><g class="cls-8"><g class="cls-2"><path class="cls-9" d="M20.3,2.5V0c.81,0,1.63,0,2.44.05l-.21,2.56c-.75,0-1.5-.08-2.23-.11" transform="translate(0)"/><path class="cls-10" d="M22.53,2.61,22.74.05A55.33,55.33,0,0,1,29,.67l-.66,2.52c-1.89-.26-3.83-.46-5.76-.58" transform="translate(0)"/><path class="cls-11" d="M28.29,3.19,29,.67A55.43,55.43,0,0,1,36.84,2.5L35.23,4.58a55.62,55.62,0,0,0-6.94-1.39" transform="translate(0)"/><path class="cls-12" d="M35.23,4.58,36.84,2.5c1.26.39,2.52.83,3.75,1.32l-2.5,1.7c-.87-.34-1.83-.65-2.86-.94" transform="translate(0)"/></g></g></g><path class="cls-13" d="M20.3,2.5c6.35.23,13.28,1.26,17.79,3V27.37c-1.88-1.69-9.65-4.66-17.79-4.66s-15.93,3-17.8,4.65V5.52C7,3.76,13.94,2.73,20.3,2.5Z" transform="translate(0)"/><g class="cls-2"><g class="cls-14"><g class="cls-2"><path class="cls-15" d="M2.5,5.52,0,3.82C.69,3.54,1.39,3.29,2.1,3L4.05,5c-.54.18-1.06.36-1.55.55" transform="translate(0)"/><path class="cls-16" d="M4.05,5,2.1,3q2.32-.8,4.73-1.4L8,4c-1.4.3-2.72.64-3.92,1" transform="translate(0)"/><path class="cls-17" d="M8,4,6.83,1.64c1.63-.4,3.29-.74,5-1l.65,2.52c-1.55.21-3,.47-4.47.78" transform="translate(0)"/><path class="cls-18" d="M12.44,3.17,11.79.65a53.73,53.73,0,0,1,7-.63l.14,2.54c-2.15.12-4.34.32-6.46.61" transform="translate(0)"/><path class="cls-9" d="M18.9,2.56,18.76,0,20.3,0V2.5l-1.4.06" transform="translate(0)"/></g></g></g></g><path class="cls-19" d="M37.09,26.26v-2a35.38,35.38,0,0,0-33.59,0v2a33.72,33.72,0,0,1,33.59,0Z" transform="translate(0)"/><path class="cls-20" d="M21.72,8.61H19.6V4.79l-8.68,7,8.68,7V14.72h.8c3.52,0,8.41-.09,8.76,3.72C30.93,14.28,29.43,8.61,21.72,8.61Z" transform="translate(0)"/></g></g></svg>