<svg xmlns="http://www.w3.org/2000/svg" xmlns:xlink="http://www.w3.org/1999/xlink" viewBox="0 0 40.59 32.97"><defs><style>.cls-1{fill:none;}.cls-2{isolation:isolate;}.cls-3{clip-path:url(#clip-path);}.cls-4{fill:#3a4141;}.cls-5{fill:#393f40;}.cls-6{fill:#545b5b;}.cls-7{fill:#4b5252;}.cls-8{clip-path:url(#clip-path-2);}.cls-9{fill:#4d5454;}.cls-10{fill:#4e5555;}.cls-11{fill:#4a5151;}.cls-12{fill:#484f4f;}.cls-13{fill:#474e4e;}.cls-14{fill:#454c4c;}.cls-15{fill:#444b4b;}.cls-16{fill:#424949;}.cls-17{fill:#414848;}.cls-18{fill:#3f4646;}.cls-19{fill:#3e4445;}.cls-20{fill:#3c4343;}.cls-21{fill:#00a0e9;}.cls-22{fill:#c8c8c8;}</style><clipPath id="clip-path" transform="translate(0)"><path class="cls-1" d="M38.09,27.45l2.5,1.7A55.62,55.62,0,0,1,20.3,33,55.63,55.63,0,0,1,0,29.15l2.5-1.7c4.51,1.76,11.44,2.79,17.8,3C26.65,30.24,33.58,29.21,38.09,27.45Z"/></clipPath><clipPath id="clip-path-2" transform="translate(0)"><path class="cls-1" d="M2.5,5.61,0,0A30.26,30.26,0,0,0,20.3,7.76,30.29,30.29,0,0,0,40.59,0l-2.5,5.6c-1.88,1.69-9.65,4.66-17.79,4.66S4.37,7.29,2.5,5.61Z"/></clipPath></defs><title>button_cmd_clockwise_pressed</title><g id="レイヤー_2" data-name="レイヤー 2"><g id="レイヤー_3" data-name="レイヤー 3"><g class="cls-2"><g class="cls-2"><g class="cls-3"><g class="cls-2"><path class="cls-4" d="M38.09,27.45l2.5,1.7A55.62,55.62,0,0,1,20.3,33,55.63,55.63,0,0,1,0,29.15l2.5-1.7c4.51,1.76,11.44,2.79,17.8,3,6.35-.23,13.28-1.26,17.79-3" transform="translate(0)"/></g></g></g><polygon class="cls-5" points="2.5 27.45 0 29.15 0 0 2.5 5.61 2.5 27.45"/><path class="cls-6" d="M38.09,5.6V27.45c-4.51,1.76-11.44,2.79-17.79,3-6.36-.23-13.29-1.26-17.8-3V5.61c1.87,1.68,9.64,4.65,17.8,4.65S36.21,7.29,38.09,5.6Z" transform="translate(0)"/><polygon class="cls-7" points="38.09 5.6 40.59 0 40.59 29.15 38.09 27.45 38.09 5.6"/><g class="cls-2"><g class="cls-8"><g class="cls-2"><path class="cls-9" d="M2.5,5.61,0,0,.52.46,2.69,5.77,2.5,5.61" transform="translate(0)"/><path class="cls-10" d="M2.69,5.77.52.46A30.8,30.8,0,0,0,4.37,3.27L4.85,7A12.11,12.11,0,0,1,2.69,5.77" transform="translate(0)"/><path class="cls-9" d="M4.85,7,4.37,3.27A30.64,30.64,0,0,0,7.13,4.78L7,7.89C6.21,7.6,5.48,7.3,4.85,7" transform="translate(0)"/><path class="cls-7" d="M7,7.89l.12-3.11c.81.39,1.65.74,2.49,1.06L9.24,8.62C8.44,8.39,7.7,8.14,7,7.89" transform="translate(0)"/><path class="cls-11" d="M9.24,8.62l.38-2.78c.86.32,1.74.6,2.62.84l-.45,2.6c-.89-.2-1.75-.42-2.55-.66" transform="translate(0)"/><path class="cls-12" d="M11.79,9.28l.45-2.6c.95.26,1.91.47,2.88.64l-.37,2.51c-1-.15-2-.34-3-.55" transform="translate(0)"/><path class="cls-13" d="M14.75,9.83l.37-2.51c1,.17,2.05.3,3.08.37L18,10.18c-1.12-.07-2.22-.19-3.29-.35" transform="translate(0)"/><path class="cls-14" d="M18,10.18l.16-2.49c.7,0,1.39.07,2.1.07l1,0,.08,2.5-1.06,0c-.76,0-1.52,0-2.26-.08" transform="translate(0)"/><path class="cls-15" d="M21.36,10.24l-.08-2.5a30.17,30.17,0,0,0,3.3-.28L24.9,10c-1.15.15-2.34.24-3.54.28" transform="translate(0)"/><path class="cls-16" d="M24.9,10l-.32-2.5a29.58,29.58,0,0,0,4-.84L29,9.22A41.82,41.82,0,0,1,24.9,10" transform="translate(0)"/><path class="cls-17" d="M29,9.22l-.46-2.6a30.45,30.45,0,0,0,4.67-1.75L33.4,8A39,39,0,0,1,29,9.22" transform="translate(0)"/><path class="cls-18" d="M33.4,8l-.15-3.08a29.87,29.87,0,0,0,3.58-2l-.68,3.93A25.61,25.61,0,0,1,33.4,8" transform="translate(0)"/><path class="cls-19" d="M36.15,6.81l.68-3.93Q38,2.15,39.05,1.29l-1.6,4.79a13.17,13.17,0,0,1-1.3.73" transform="translate(0)"/><path class="cls-20" d="M37.45,6.08l1.6-4.79c.52-.41,1-.84,1.54-1.29l-2.5,5.6a5.59,5.59,0,0,1-.64.48" transform="translate(0)"/></g></g></g></g><path class="cls-21" d="M3.5,6.7v2a35.27,35.27,0,0,0,16.79,4.24,35.28,35.28,0,0,0,16.8-4.24v-2a33.61,33.61,0,0,1-16.8,4.49A33.54,33.54,0,0,1,3.5,6.7Z" transform="translate(0)"/><path class="cls-22" d="M21.72,25.47H19.6V29.3l-8.68-7,8.68-7v4.14h.8c3.52,0,8.41.09,8.76-3.72C30.93,19.81,29.43,25.47,21.72,25.47Z" transform="translate(0)"/></g></g></svg>