<svg xmlns="http://www.w3.org/2000/svg" xmlns:xlink="http://www.w3.org/1999/xlink" viewBox="0 0 32.97 40.59"><defs><style>.cls-1{fill:none;}.cls-2{isolation:isolate;}.cls-3{fill:#333b3b;}.cls-4{fill:#303838;}.cls-5{clip-path:url(#clip-path);}.cls-6{fill:#313939;}.cls-7{fill:#414a4a;}.cls-8{clip-path:url(#clip-path-2);}.cls-9{fill:#343c3c;}.cls-10{fill:#353d3d;}.cls-11{fill:#363e3e;}.cls-12{fill:#373f3f;}.cls-13{fill:#384040;}.cls-14{fill:#394141;}.cls-15{fill:#3a4242;}.cls-16{fill:#3b4343;}.cls-17{fill:#3c4444;}.cls-18{fill:#3c4545;}.cls-19{fill:#3d4646;}.cls-20{fill:#394242;}.cls-21{fill:#c8c8c8;}.cls-22{fill:#00a0e9;}</style><clipPath id="clip-path"><path class="cls-1" d="M5.52,38.09l-1.7,2.5A55.82,55.82,0,0,1,3.82,0l1.7,2.5C3.76,7,2.73,13.94,2.5,20.3,2.73,26.65,3.76,33.58,5.52,38.09Z"/></clipPath><clipPath id="clip-path-2"><path class="cls-1" d="M27.37,2.5,33,0a30.42,30.42,0,0,0,0,40.59l-5.61-2.5c-1.68-1.87-4.65-9.64-4.65-17.79S25.68,4.38,27.37,2.5Z"/></clipPath></defs><title>button_cmd_left_normal</title><g id="レイヤー_2" data-name="レイヤー 2"><g id="レイヤー_3" data-name="レイヤー 3"><g class="cls-2"><rect class="cls-3" x="3.82" width="29.15"/><polygon class="cls-4" points="27.36 38.09 32.97 40.59 3.82 40.59 5.52 38.09 27.36 38.09"/><g class="cls-2"><g class="cls-5"><g class="cls-2"><path class="cls-6" d="M5.52,38.09l-1.7,2.5A55.82,55.82,0,0,1,3.82,0l1.7,2.5C3.76,7,2.73,13.94,2.5,20.3c.23,6.35,1.26,13.28,3,17.79"/></g></g></g><path class="cls-7" d="M27.37,2.5c-1.69,1.88-4.66,9.65-4.66,17.8s3,15.92,4.65,17.79H5.52c-1.76-4.51-2.79-11.44-3-17.79C2.73,13.94,3.76,7,5.52,2.5Z"/><g class="cls-2"><g class="cls-8"><g class="cls-2"><path class="cls-3" d="M27.37,2.5,33,0c-.33.37-.65.74-1,1.12L27,2.94a4.51,4.51,0,0,1,.35-.44"/><path class="cls-9" d="M27,2.94l5-1.82c-.41.5-.8,1-1.18,1.55L26.52,3.75a9,9,0,0,1,.5-.81"/><path class="cls-10" d="M26.52,3.75l4.31-1.08Q30,3.83,29.3,5l-3.56.3c.27-.6.53-1.14.78-1.59"/><path class="cls-11" d="M25.74,5.34,29.3,5a30.61,30.61,0,0,0-1.85,3.77l-2.87-.32a32.43,32.43,0,0,1,1.16-3.15"/><path class="cls-12" d="M24.58,8.49l2.87.32A29.68,29.68,0,0,0,26,13.24l-2.55-.45a42,42,0,0,1,1.1-4.3"/><path class="cls-13" d="M23.48,12.79l2.55.45A31.75,31.75,0,0,0,25.38,17l-2.49-.26c.13-1.37.34-2.7.59-4"/><path class="cls-14" d="M22.89,16.76l2.49.26a32.3,32.3,0,0,0-.17,3.28v0h-2.5v0a34.38,34.38,0,0,1,.18-3.54"/><path class="cls-15" d="M22.71,20.33h2.5a29.33,29.33,0,0,0,.19,3.38L22.9,24c-.12-1.2-.19-2.42-.19-3.65"/><path class="cls-16" d="M22.9,24l2.5-.27A31.54,31.54,0,0,0,26,27.1l-2.54.44c-.22-1.15-.4-2.34-.53-3.56"/><path class="cls-17" d="M23.43,27.54,26,27.1a30.08,30.08,0,0,0,.89,3.12l-2.71.43c-.27-1-.52-2-.72-3.11"/><path class="cls-18" d="M24.15,30.65l2.71-.43a31.14,31.14,0,0,0,1.21,3L25,33.37c-.3-.83-.59-1.75-.85-2.72"/><path class="cls-19" d="M25,33.37l3.07-.16a30.42,30.42,0,0,0,4.74,7.2L27.31,38A16.42,16.42,0,0,1,25,33.37"/><path class="cls-18" d="M27.31,38l5.5,2.38.16.18-5.61-2.5L27.31,38"/></g></g></g><polygon class="cls-20" points="5.52 2.5 3.82 0 32.97 0 27.37 2.5 5.52 2.5"/></g><polygon class="cls-21" points="16.39 31.81 19.48 28.71 11.54 20.77 19.48 12.82 16.39 9.72 5.34 20.77 16.39 31.81"/><path class="cls-22" d="M26.26,3.51h-2a35.36,35.36,0,0,0,0,33.58h2a33.7,33.7,0,0,1,0-33.58Z"/></g></g></svg>