<svg xmlns="http://www.w3.org/2000/svg" xmlns:xlink="http://www.w3.org/1999/xlink" viewBox="0 0 32.97 40.59"><defs><style>.cls-1{fill:none;}.cls-2{isolation:isolate;}.cls-3{fill:#3d4444;}.cls-4{fill:#393f40;}.cls-5{fill:#545b5b;}.cls-6{clip-path:url(#clip-path);}.cls-7{fill:#4b5252;}.cls-8{fill:#4a5151;}.cls-9{fill:#484f4f;}.cls-10{fill:#474e4e;}.cls-11{fill:#454c4c;}.cls-12{fill:#444b4b;}.cls-13{fill:#424949;}.cls-14{clip-path:url(#clip-path-2);}.cls-15{fill:#3a4141;}.cls-16{fill:#c8c8c8;}.cls-17{fill:#00a0e9;}</style><clipPath id="clip-path"><path class="cls-1" d="M27.45,2.5,29.15,0A55.63,55.63,0,0,1,33,20.3a55.62,55.62,0,0,1-3.82,20.29l-1.7-2.5c1.76-4.51,2.79-11.44,3-17.79C30.24,13.94,29.21,7,27.45,2.5Z"/></clipPath><clipPath id="clip-path-2"><path class="cls-1" d="M5.61,38.09,0,40.59A30.25,30.25,0,0,0,7.76,20.3,30.29,30.29,0,0,0,0,0L5.6,2.5c1.69,1.88,4.66,9.65,4.66,17.8S7.29,36.22,5.61,38.09Z"/></clipPath></defs><title>button_cmd_right_pressed</title><g id="レイヤー_2" data-name="レイヤー 2"><g id="レイヤー_3" data-name="レイヤー 3"><g class="cls-2"><rect class="cls-3" width="29.15"/><polygon class="cls-4" points="27.45 38.09 29.15 40.59 0 40.59 5.61 38.09 27.45 38.09"/><path class="cls-5" d="M27.45,2.5c1.76,4.51,2.79,11.44,3,17.8-.23,6.35-1.26,13.28-3,17.79H5.61c1.68-1.87,4.65-9.64,4.65-17.79S7.29,4.38,5.6,2.5Z"/><g class="cls-2"><g class="cls-6"><g class="cls-2"><path class="cls-7" d="M27.45,2.5,29.15,0a55.32,55.32,0,0,1,2.13,6.65L29,7.81A36.84,36.84,0,0,0,27.45,2.5"/><path class="cls-8" d="M29,7.81l2.29-1.16a54.91,54.91,0,0,1,1.5,9.06l-2.57.37A70.78,70.78,0,0,0,29,7.81"/><path class="cls-9" d="M30.21,16.08l2.57-.37c.12,1.41.18,2.82.19,4.25l-2.51,0c-.06-1.29-.14-2.6-.25-3.91"/><path class="cls-10" d="M30.46,20,33,20v.34a57.25,57.25,0,0,1-.43,7L30,26.72c.25-2.13.41-4.31.49-6.42,0-.11,0-.21,0-.31"/><path class="cls-11" d="M30,26.72l2.56.53q-.33,2.59-.89,5.13l-2.39-1c.29-1.51.53-3.09.72-4.69"/><path class="cls-12" d="M29.26,31.41l2.39,1c-.33,1.48-.72,2.95-1.16,4.39l-2.09-1.6c.33-1.17.61-2.44.86-3.76"/><path class="cls-13" d="M28.4,35.17l2.09,1.6c-.4,1.29-.85,2.56-1.34,3.82l-1.7-2.5c.34-.89.66-1.87.95-2.92"/></g></g></g><g class="cls-2"><g class="cls-14"><g class="cls-2"><path class="cls-15" d="M5.61,38.09,0,40.59A30.25,30.25,0,0,0,7.76,20.3,30.29,30.29,0,0,0,0,0L5.6,2.5c1.69,1.88,4.66,9.65,4.66,17.8s-3,15.92-4.65,17.79"/></g></g></g><polygon class="cls-9" points="5.6 2.5 0 0 29.15 0 27.45 2.5 5.6 2.5"/></g><polygon class="cls-16" points="17.57 9.72 14.47 12.82 22.42 20.77 14.47 28.71 17.57 31.81 28.61 20.77 17.57 9.72"/><path class="cls-17" d="M8.67,3.51h-2A33.54,33.54,0,0,1,11.18,20.3,33.54,33.54,0,0,1,6.7,37.09h2A35.35,35.35,0,0,0,12.9,20.3,35.35,35.35,0,0,0,8.67,3.51Z"/></g></g></svg>