<svg xmlns="http://www.w3.org/2000/svg" xmlns:xlink="http://www.w3.org/1999/xlink" viewBox="0 0 40.59 32.97"><defs><style>.cls-1{fill:none;}.cls-2{isolation:isolate;}.cls-3{clip-path:url(#clip-path);}.cls-4{fill:#3a4141;}.cls-5{fill:#4b5252;}.cls-6{fill:#545b5b;}.cls-7{fill:#393f40;}.cls-8{clip-path:url(#clip-path-2);}.cls-9{fill:#4d5454;}.cls-10{fill:#4e5555;}.cls-11{fill:#4a5151;}.cls-12{fill:#484f4f;}.cls-13{fill:#474e4e;}.cls-14{fill:#454c4c;}.cls-15{fill:#444b4b;}.cls-16{fill:#424949;}.cls-17{fill:#414848;}.cls-18{fill:#3f4646;}.cls-19{fill:#3e4445;}.cls-20{fill:#3c4343;}.cls-21{fill:#c8c8c8;}</style><clipPath id="clip-path" transform="translate(0)"><path class="cls-1" d="M38.09,27.45l2.5,1.7A55.58,55.58,0,0,1,20.3,33,55.63,55.63,0,0,1,0,29.15l2.5-1.7c4.51,1.76,11.44,2.79,17.8,3C26.65,30.24,33.59,29.21,38.09,27.45Z"/></clipPath><clipPath id="clip-path-2" transform="translate(0)"><path class="cls-1" d="M2.5,5.59,0,0A30.34,30.34,0,0,0,20.3,7.76,30.3,30.3,0,0,0,40.59,0l-2.5,5.6c-1.87,1.68-9.64,4.66-17.79,4.66S4.38,7.28,2.5,5.59Z"/></clipPath></defs><title>button_down_pressed</title><g id="レイヤー_2" data-name="レイヤー 2"><g id="レイヤー_3" data-name="レイヤー 3"><g class="cls-2"><g class="cls-2"><g class="cls-3"><g class="cls-2"><path class="cls-4" d="M38.09,27.45l2.5,1.7A55.58,55.58,0,0,1,20.3,33,55.63,55.63,0,0,1,0,29.15l2.5-1.7c4.51,1.76,11.44,2.79,17.8,3,6.35-.23,13.29-1.26,17.79-3" transform="translate(0)"/></g></g></g><polygon class="cls-5" points="38.09 5.6 40.59 0 40.59 29.15 38.09 27.45 38.09 5.6"/><path class="cls-6" d="M38.09,5.6V27.45c-4.5,1.76-11.44,2.79-17.79,3-6.36-.23-13.29-1.26-17.8-3V5.59c1.88,1.69,9.65,4.67,17.8,4.67S36.22,7.28,38.09,5.6Z" transform="translate(0)"/><polygon class="cls-7" points="2.5 27.45 0 29.15 0 0 2.5 5.59 2.5 27.45"/><g class="cls-2"><g class="cls-8"><g class="cls-2"><path class="cls-9" d="M2.5,5.59,0,0,.54.47,2.7,5.76l-.2-.17" transform="translate(0)"/><path class="cls-10" d="M2.7,5.76.54.47A30.89,30.89,0,0,0,4.33,3.24L4.83,7A11.73,11.73,0,0,1,2.7,5.76" transform="translate(0)"/><path class="cls-9" d="M4.83,7l-.5-3.75A30.23,30.23,0,0,0,7.12,4.77L7,7.88c-.81-.29-1.54-.6-2.17-.89" transform="translate(0)"/><path class="cls-5" d="M7,7.88l.12-3.11c.82.39,1.66.75,2.51,1.07L9.24,8.62C8.45,8.38,7.69,8.13,7,7.88" transform="translate(0)"/><path class="cls-11" d="M9.24,8.62l.39-2.78c.86.32,1.74.6,2.63.84l-.46,2.6c-.89-.2-1.75-.43-2.56-.66" transform="translate(0)"/><path class="cls-12" d="M11.8,9.28l.46-2.6a28.48,28.48,0,0,0,2.88.64l-.37,2.51c-1-.15-2-.34-3-.55" transform="translate(0)"/><path class="cls-13" d="M14.77,9.83l.37-2.51a28.58,28.58,0,0,0,3.07.37l-.16,2.49c-1.12-.07-2.22-.19-3.28-.35" transform="translate(0)"/><path class="cls-14" d="M18.05,10.18l.16-2.49c.69,0,1.39.07,2.09.07l1,0,.08,2.5-1.06,0c-.76,0-1.51,0-2.25-.08" transform="translate(0)"/><path class="cls-15" d="M21.36,10.24l-.08-2.5a30.17,30.17,0,0,0,3.3-.28L24.9,10c-1.15.15-2.34.24-3.54.28" transform="translate(0)"/><path class="cls-16" d="M24.9,10l-.32-2.5a30.24,30.24,0,0,0,4-.84L29,9.22A41.1,41.1,0,0,1,24.9,10" transform="translate(0)"/><path class="cls-17" d="M29,9.22l-.45-2.6a30.69,30.69,0,0,0,4.66-1.74L33.4,8A39.23,39.23,0,0,1,29,9.22" transform="translate(0)"/><path class="cls-18" d="M33.4,8l-.16-3.07a30.7,30.7,0,0,0,3.59-2L36.15,6.8A23.61,23.61,0,0,1,33.4,8" transform="translate(0)"/><path class="cls-19" d="M36.15,6.8l.68-3.92Q38,2.15,39.05,1.29l-1.6,4.79a13.28,13.28,0,0,1-1.3.72" transform="translate(0)"/><path class="cls-20" d="M37.45,6.08l1.6-4.79c.53-.41,1-.84,1.54-1.29l-2.5,5.6a5.59,5.59,0,0,1-.64.48" transform="translate(0)"/></g></g></g></g><polygon class="cls-21" points="32.12 18.1 29.02 15.01 21.07 22.95 13.13 15.01 10.03 18.1 21.07 29.15 32.12 18.1"/></g></g></svg>