<svg xmlns="http://www.w3.org/2000/svg" xmlns:xlink="http://www.w3.org/1999/xlink" viewBox="0 0 40.58 32.97"><defs><style>.cls-1{fill:none;}.cls-2{isolation:isolate;}.cls-3{clip-path:url(#clip-path);}.cls-4{fill:#313939;}.cls-5{fill:#414a4a;}.cls-6{fill:#3b4344;}.cls-7{fill:#303838;}.cls-8{clip-path:url(#clip-path-2);}.cls-9{fill:#3c4545;}.cls-10{fill:#3d4646;}.cls-11{fill:#3c4444;}.cls-12{fill:#3b4343;}.cls-13{fill:#3a4242;}.cls-14{fill:#394141;}.cls-15{fill:#384040;}.cls-16{fill:#373f3f;}.cls-17{fill:#363e3e;}.cls-18{fill:#353d3d;}.cls-19{fill:#343c3c;}.cls-20{fill:#333b3b;}.cls-21{fill:#323a3a;}.cls-22{fill:#c8c8c8;}.cls-23{fill:#00a0e9;}</style><clipPath id="clip-path" transform="translate(0)"><path class="cls-1" d="M38.08,27.45l2.5,1.7A55.54,55.54,0,0,1,20.29,33,55.54,55.54,0,0,1,0,29.15l2.5-1.7c4.5,1.76,11.43,2.79,17.79,3C26.65,30.24,33.58,29.21,38.08,27.45Z"/></clipPath><clipPath id="clip-path-2" transform="translate(0)"><path class="cls-1" d="M2.5,5.6,0,0A30.3,30.3,0,0,0,20.29,7.76,30.3,30.3,0,0,0,40.58,0l-2.5,5.6c-1.87,1.68-9.64,4.66-17.79,4.66S4.37,7.28,2.5,5.6Z"/></clipPath></defs><title>button_cmd_down_normal</title><g id="レイヤー_2" data-name="レイヤー 2"><g id="レイヤー_3" data-name="レイヤー 3"><g class="cls-2"><g class="cls-2"><g class="cls-3"><g class="cls-2"><path class="cls-4" d="M38.08,27.45l2.5,1.7A55.54,55.54,0,0,1,20.29,33,55.54,55.54,0,0,1,0,29.15l2.5-1.7c4.5,1.76,11.43,2.79,17.79,3,6.36-.23,13.29-1.26,17.79-3" transform="translate(0)"/></g></g></g><path class="cls-5" d="M38.08,5.6V27.45c-4.5,1.76-11.43,2.79-17.79,3-6.36-.23-13.29-1.26-17.79-3V5.6c1.87,1.68,9.64,4.66,17.79,4.66S36.21,7.28,38.08,5.6Z" transform="translate(0)"/><polygon class="cls-6" points="38.08 5.6 40.58 0 40.58 29.15 38.08 27.45 38.08 5.6"/><polygon class="cls-7" points="2.5 27.45 0 29.15 0 0 2.5 5.6 2.5 27.45"/><g class="cls-2"><g class="cls-8"><g class="cls-2"><path class="cls-9" d="M2.5,5.6,0,0C.17.16.35.31.53.46l2.16,5.3L2.5,5.6" transform="translate(0)"/><path class="cls-10" d="M2.69,5.76.53.46A29.28,29.28,0,0,0,4.34,3.25L4.84,7A12,12,0,0,1,2.69,5.76" transform="translate(0)"/><path class="cls-9" d="M4.84,7l-.5-3.75A30,30,0,0,0,7.12,4.77L7,7.88C6.2,7.59,5.47,7.29,4.84,7" transform="translate(0)"/><path class="cls-11" d="M7,7.88l.12-3.11c.82.39,1.66.75,2.51,1.07L9.24,8.62c-.8-.24-1.55-.48-2.24-.74" transform="translate(0)"/><path class="cls-12" d="M9.24,8.62l.39-2.78c.86.32,1.73.6,2.62.85L11.8,9.28c-.9-.2-1.75-.43-2.56-.66" transform="translate(0)"/><path class="cls-13" d="M11.8,9.28l.45-2.59c.95.25,1.91.47,2.88.63l-.37,2.51c-1-.15-2-.34-3-.55" transform="translate(0)"/><path class="cls-14" d="M14.76,9.83l.37-2.51a28.46,28.46,0,0,0,3.08.37L18,10.18c-1.12-.07-2.22-.19-3.28-.35" transform="translate(0)"/><path class="cls-15" d="M18,10.18l.17-2.49c.69,0,1.38.07,2.08.07l1,0,.08,2.5-1.06,0c-.76,0-1.51,0-2.25-.08" transform="translate(0)"/><path class="cls-16" d="M21.35,10.24l-.08-2.5a30.17,30.17,0,0,0,3.3-.28l.32,2.5c-1.15.15-2.34.24-3.54.28" transform="translate(0)"/><path class="cls-17" d="M24.89,10l-.32-2.5a30.24,30.24,0,0,0,4-.84L29,9.22a41.1,41.1,0,0,1-4.13.74" transform="translate(0)"/><path class="cls-18" d="M29,9.22l-.45-2.6a30.69,30.69,0,0,0,4.66-1.74L33.39,8A39.23,39.23,0,0,1,29,9.22" transform="translate(0)"/><path class="cls-19" d="M33.39,8l-.16-3.07a30.7,30.7,0,0,0,3.59-2L36.14,6.8A23.61,23.61,0,0,1,33.39,8" transform="translate(0)"/><path class="cls-20" d="M36.14,6.8l.68-3.92Q38,2.15,39,1.29l-1.6,4.79a12.21,12.21,0,0,1-1.3.72" transform="translate(0)"/><path class="cls-21" d="M37.44,6.08,39,1.29c.53-.41,1-.84,1.54-1.29l-2.5,5.6a5.59,5.59,0,0,1-.64.48" transform="translate(0)"/></g></g></g></g><polygon class="cls-22" points="32.11 18.1 29.01 15.01 21.06 22.95 13.12 15.01 10.02 18.1 21.06 29.15 32.11 18.1"/><path class="cls-23" d="M3.5,6.7v2A35.23,35.23,0,0,0,20.29,12.9,35.23,35.23,0,0,0,37.08,8.67v-2a33.54,33.54,0,0,1-16.79,4.49A33.54,33.54,0,0,1,3.5,6.7Z" transform="translate(0)"/></g></g></svg>