<svg xmlns="http://www.w3.org/2000/svg" viewBox="0 0 65.09 67.93"><defs><style>.cls-1{fill:#8c8c8c;}.cls-2{fill:#fff;}.cls-3{fill:#5f5f5f;}</style></defs><title>img_intball_front</title><g id="レイヤー_2" data-name="レイヤー 2"><g id="レイヤー_6" data-name="レイヤー 6"><path class="cls-1" d="M32.55,67.93a34,34,0,0,1-31.1-20.3A17,17,0,0,1,0,40.75V27.18A17,17,0,0,1,1.45,20.3a34,34,0,0,1,62.2,0,17,17,0,0,1,1.44,6.88V40.75a17,17,0,0,1-1.44,6.88A34,34,0,0,1,32.55,67.93Z"/><path class="cls-2" d="M62.26,27.18a14.34,14.34,0,0,0-1.2-5.74,31.14,31.14,0,0,0-57,0,14.18,14.18,0,0,0-1.21,5.74V40.75A14.21,14.21,0,0,0,4,46.49a31.15,31.15,0,0,0,57,0,14.37,14.37,0,0,0,1.2-5.74Z"/><path class="cls-1" d="M32.08,45.36c0,.09,5.18-.1,5.46-.12A57.46,57.46,0,0,0,48,43.7a35.41,35.41,0,0,0,7.62-2.91c.78-.39,1.89-1,1.89-3.28V29.84a8.22,8.22,0,0,0-.25-2.32,3.38,3.38,0,0,0-1.23-1.66,18.94,18.94,0,0,0-1.76-1.21c-.64-.42-1.29-.81-2-1.19a34,34,0,0,0-4-1.89,42.37,42.37,0,0,0-7.47-1.94c-2-.33-2.65-.77-2.65-2.53,0-2.16-.1-3.76-.13-5.91a7.1,7.1,0,0,0-.2-1.72C37.57,8.63,33.75,8,32.11,8s-5.46.67-5.78,1.51a6.63,6.63,0,0,0-.2,1.72c0,2.15,0,3.76-.14,5.91-.09,1.63-.66,2.2-2.64,2.53a42.65,42.65,0,0,0-7.48,1.94,33.9,33.9,0,0,0-4,1.89c-.66.38-1.32.77-1.95,1.19a18.94,18.94,0,0,0-1.76,1.21,3.39,3.39,0,0,0-1.24,1.66,8.59,8.59,0,0,0-.24,2.32v7.67c0,2.32,1.11,2.89,1.88,3.28a35.49,35.49,0,0,0,7.63,2.91,57.46,57.46,0,0,0,10.5,1.54C27,45.26,32.08,45.36,32.08,45.36Z"/><path class="cls-2" d="M47.08,40.34a7.32,7.32,0,0,1-6-3.77,8,8,0,0,1-1.16-3.79c-.21-4.76,2.88-8.13,6.7-8.13,5.37,0,8.32,6.48,6.67,11.09a7,7,0,0,1-5.51,4.55A4.89,4.89,0,0,1,47.08,40.34Z"/><path class="cls-3" d="M46.91,38.31c-2.71-.14-5.14-3-5.06-6,.09-3.53,2.24-5.81,5-5.81,4.15,0,6.1,4.66,5,8.21A4.77,4.77,0,0,1,46.91,38.31Z"/><path class="cls-2" d="M17.15,40.34a7.33,7.33,0,0,0,6-3.77,8,8,0,0,0,1.16-3.79c.2-4.76-2.88-8.13-6.71-8.13-5.37,0-8.31,6.48-6.66,11.09a7,7,0,0,0,5.51,4.55A4.89,4.89,0,0,0,17.15,40.34Z"/><path class="cls-3" d="M17.31,38.31c2.71-.14,5.15-3,5.07-6-.09-3.53-2.25-5.81-5-5.81-4.15,0-6.1,4.66-5,8.21A4.77,4.77,0,0,0,17.31,38.31Z"/><circle class="cls-3" cx="32.35" cy="35.23" r="3.54"/><path class="cls-1" d="M7.2,19.59c0,.28-.1.64.28.79a1.29,1.29,0,0,0,1.07-.29,41.69,41.69,0,0,1,4.87-2.56c1.26-.56,3.78-1.1,4.75-2s.63-2.05.63-3.05V5.22A30,30,0,0,0,7.2,14.9Z"/><path class="cls-1" d="M57.89,19.59c0,.28.11.64-.28.79a1.29,1.29,0,0,1-1.07-.29,40.91,40.91,0,0,0-4.87-2.56c-1.26-.56-3.77-1.1-4.75-2s-.63-2.05-.63-3.05V5.22a29.92,29.92,0,0,1,11.6,9.68Z"/><path class="cls-1" d="M7.2,47c0-.28-.06-.77.46-.93s1.14.38,1.44.51a33.32,33.32,0,0,0,4,1.56c1.33.45,4.08.72,5.05,1.68s.63,3,.63,4v9.31a30.3,30.3,0,0,1-11.6-10Z"/><path class="cls-1" d="M57.85,47c0-.28.07-.77-.46-.93s-1.14.38-1.44.51a33.32,33.32,0,0,1-4,1.56c-1.33.45-4.08.72-5,1.68s-.63,3-.63,4v9.31a30.3,30.3,0,0,0,11.6-10Z"/></g></g></svg>