<svg xmlns="http://www.w3.org/2000/svg" viewBox="0 0 67.61 67.61"><defs><style>.cls-1{fill:#8c8c8c;}.cls-2{fill:#fff;}.cls-3{fill:#5f5f5f;}.cls-4{fill:#aeaeae;}</style></defs><title>img_intball_side</title><g id="レイヤー_2" data-name="レイヤー 2"><g id="レイヤー_6" data-name="レイヤー 6"><circle class="cls-1" cx="33.81" cy="33.81" r="33.81"/><path class="cls-2" d="M33.81,64.78a31,31,0,1,1,31-31A31,31,0,0,1,33.81,64.78Z"/><path class="cls-1" d="M6.1,18.34A27.67,27.67,0,0,0,2.56,31.9c0,3.46.29,9.89,1.45,12.94l12.38-4.79a1.4,1.4,0,0,0,.82-1.67,16.87,16.87,0,0,1-.64-4.57A17.19,17.19,0,0,1,18,26.89a1.41,1.41,0,0,0-.56-1.75Z"/><ellipse class="cls-2" cx="8.69" cy="31.61" rx="9.46" ry="4.43" transform="translate(-23.74 36.38) rotate(-83)"/><ellipse class="cls-3" cx="8.41" cy="31.61" rx="7.48" ry="3.51" transform="translate(-23.99 36.1) rotate(-83)"/><path class="cls-4" d="M33.81,46.07A12.27,12.27,0,1,1,46.07,33.81,12.28,12.28,0,0,1,33.81,46.07Z"/><circle class="cls-3" cx="28.01" cy="31.71" r="2.87"/><circle class="cls-3" cx="39.61" cy="31.71" r="2.87"/><path class="cls-1" d="M61.47,30.61a27.81,27.81,0,0,0-46.89-16.9A1.43,1.43,0,0,0,14.81,16l6.83,4.29a1.41,1.41,0,0,0,1.63-.06,17.2,17.2,0,0,1,13.23-3.4A17,17,0,0,1,50.93,31.84,17.21,17.21,0,0,1,21.57,45.91a1.45,1.45,0,0,0-1.6-.34L12.5,48.82A1.42,1.42,0,0,0,12,51,27.82,27.82,0,0,0,61.47,30.61Z"/></g></g></svg>